<?xml version="1.0" encoding="UTF-8"?>
<svg width="24px" height="24px" viewBox="0 0 24 24" version="1.1" xmlns="http://www.w3.org/2000/svg" xmlns:xlink="http://www.w3.org/1999/xlink">
    <title>icon_account_disabled</title>
    <g id="UX-391-&amp;-392-VidyoConnector-Sample-app-on-Windows-&amp;-MacOS-v8" stroke="none" stroke-width="1" fill="none" fill-rule="evenodd" opacity="0.25">
        <g id="Assets" transform="translate(-843.000000, -202.000000)" fill="#FFFFFF">
            <g id="tab-4-copy-2" transform="translate(810.000000, 192.000000)">
                <g id="icon_account_disabled" transform="translate(33.000000, 10.000000)">
                    <path d="M20.0666667,20.5126064 C20.0648554,21.1230322 20.0648554,21.7352856 20.063044,22.3457113 C20.063044,22.4352648 20.0485536,22.5248183 20.0213839,22.6070613 C19.9724786,22.7550987 19.8819131,22.8775493 19.7714232,22.9433437 C19.7279518,22.970758 19.6808578,22.9872066 19.6337637,22.9963448 C19.6192732,22.9981724 19.6047828,23 19.5921036,23 L19.5667453,23 L4.42963212,23 C4.41514165,23 4.40065117,23 4.3861607,22.9981724 C4.33544403,22.9926895 4.28472737,22.9780685 4.23763332,22.9506542 C4.12352083,22.8866874 4.02752143,22.7624091 3.97680476,22.6107165 C3.94963512,22.5339564 3.93695595,22.4517134 3.93333333,22.3694704 L3.93333333,22.3365732 L3.93333333,20.1872897 L3.93333333,16.888432 C4.60714045,14.6093873 8.15730699,14.2 9.54658134,14.2 L14.3628532,14.2 C15.7521275,14.2 19.40735,15.09919 20.0340631,16.9743302 L20.0666667,20.5126064 L20.0666667,20.5126064 Z M11.9990149,1 C14.8360903,1 17.1333333,3.29728669 17.1333333,6.13333333 C17.1333333,8.96937998 14.8360903,11.2666667 11.9990149,11.2666667 C9.16390968,11.2666667 6.86666667,8.96937998 6.86666667,6.13333333 C6.86666667,3.29728669 9.16390968,1 11.9990149,1 L11.9990149,1 Z" id="icon_account"></path>
                </g>
            </g>
        </g>
    </g>
</svg>