<?xml version="1.0" encoding="UTF-8"?>
<svg width="32px" height="32px" viewBox="0 0 32 32" version="1.1" xmlns="http://www.w3.org/2000/svg" xmlns:xlink="http://www.w3.org/1999/xlink">
    <title>F5326112-5F13-4B7F-B3F9-8728A3E7DDE4</title>
    <g id="UX-391-&amp;-392-VidyoConnector-Sample-app-on-Windows-&amp;-MacOS-v8" stroke="none" stroke-width="1" fill="none" fill-rule="evenodd" opacity="0.5">
        <g id="Assets" transform="translate(-122.000000, -652.000000)">
            <g id="toolbar" transform="translate(0.000000, 596.000000)">
                <g id="icon_speaker_disabled" transform="translate(122.000000, 56.000000)">
                    <rect id="Rectangle" x="0" y="0" width="32" height="32"></rect>
                    <path d="M7.4055,6 L12.226625,10.821125 L16,14.5945 L18,16.594375 L20.239625,18.834 L22.142375,20.73675 L26,24.5945 L24.5945,26 L22.3875,23.7935 C21.1248506,24.8727002 19.6193325,25.6296198 18,25.999375 L18,25.999375 L18,23.644875 C19.0075836,23.3374112 19.9441319,22.8330441 20.755375,22.161 L20.755375,22.161 L18.951,20.356625 C18.6576802,20.6041585 18.338891,20.8198272 18,21 L18,21 L18,19.4055 L16,17.4055 L16,25 L10.44475,19.375 L6.000625,19.375 L6.000625,12.625 L10.44475,12.625 L10.829875,12.235375 L6,7.4055 L7.4055,6 Z M18,6.000625 C21.0906536,6.69119343 23.6872376,8.77420004 25.0316832,11.6415142 C26.3761288,14.5088283 26.3168396,17.8371387 24.871125,20.65475 L24.871125,20.65475 L23.137375,18.921 C23.5130794,17.9927188 23.7086844,17.0014161 23.71375,16 C23.7099372,12.468356 21.3859796,9.35895056 18,8.355125 L18,8.355125 Z M18,11 C19.8565474,11.9727128 21.0142371,13.9009895 21,15.996875 C20.9985856,16.2428409 20.9814674,16.4884656 20.94875,16.73225 L20.94875,16.73225 L18,13.7835 Z M16,7 L16,11.78375 L13.62375,9.4075 L16,7 Z" id="Combined-Shape" fill="#FFFFFF" fill-rule="nonzero"></path>
                </g>
            </g>
        </g>
    </g>
</svg>