<?xml version="1.0" encoding="UTF-8"?>
<svg width="32px" height="32px" viewBox="0 0 32 32" version="1.1" xmlns="http://www.w3.org/2000/svg" xmlns:xlink="http://www.w3.org/1999/xlink">
    <title>AD1323E6-FC8D-465B-B067-B21BBE0FED0E</title>
    <g id="UX-391-&amp;-392-VidyoConnector-Sample-app-on-Windows-&amp;-MacOS-v8" stroke="none" stroke-width="1" fill="none" fill-rule="evenodd" opacity="0.5">
        <g id="Assets" transform="translate(-410.000000, -652.000000)">
            <g id="toolbar" transform="translate(0.000000, 596.000000)">
                <g id="icon_camera_disabled" transform="translate(410.000000, 56.000000)">
                    <rect id="Rectangle" x="0" y="0" width="32" height="32"></rect>
                    <path d="M7.4055,6 L10.405875,9 L20,18.59425 L26,24.5945 L24.5945,26 L19.989,21.394875 C19.9630279,22.2868646 19.2338635,22.9972744 18.3415,23 L18.3415,23 L7.659,23 C6.74315012,22.999586 6.00088792,22.2571 6.00075,21.34125 L6.00075,21.34125 L6.00075,10.65875 C6.00340825,9.766407 6.71378113,9.03722363 7.60575,9.01125 L7.60575,9.01125 L6,7.4055 L7.4055,6 Z M26,10.6675 L26,21.3325 L25.55,21.3325 L20.66625,16.45 L20.66625,14 L24.66625,10.6675 L26,10.6675 Z M18.3415,9 C19.2574189,9.00034501 19.999793,9.74283103 20,10.65875 L20,10.65875 L20,15.78325 L13.2165,9 Z" id="Combined-Shape" fill="#FFFFFF" fill-rule="nonzero"></path>
                </g>
            </g>
        </g>
    </g>
</svg>