<?xml version="1.0" encoding="UTF-8"?>
<svg width="24px" height="24px" viewBox="0 0 24 24" version="1.1" xmlns="http://www.w3.org/2000/svg" xmlns:xlink="http://www.w3.org/1999/xlink">
    <title>icon_general_disabled</title>
    <defs>
        <path d="M20.7790913,13.1661114 C20.8263697,12.7833914 20.8617609,12.3946572 20.8617609,12 C20.8617609,11.6053428 20.8263697,11.2166086 20.7790913,10.8338886 L23.2788085,8.85458834 C23.503403,8.67516556 23.568422,8.35222278 23.4206435,8.08905722 L21.0567276,3.94493772 C20.9090392,3.68780456 20.6017751,3.58016 20.3357558,3.68780456 L17.3927031,4.88978228 C16.7840286,4.41736 16.1161886,4.01669772 15.3951267,3.71172456 L14.9519713,0.542310888 C14.8988395,0.261257722 14.6564143,0.04 14.3609473,0.04 L9.63311567,0.04 C9.33755866,0.04 9.09531357,0.261257722 9.04803525,0.542310888 L8.60487983,3.71172456 C7.88381796,4.01669772 7.21597797,4.41138228 6.60731242,4.88978228 L3.66424173,3.68780456 C3.39830345,3.58613772 3.09099439,3.68780456 2.9432519,3.94493772 L0.57933608,8.08905722 C0.431593592,8.34620861 0.496594523,8.66906027 0.721171029,8.85458834 L3.21510673,10.8338886 C3.16782841,11.2166086 3.13236517,11.6053428 3.13236517,12 C3.13236517,12.3946572 3.16782841,12.7833914 3.21510673,13.1661114 L0.721171029,15.1454117 C0.496594523,15.3248344 0.431593592,15.6477772 0.57933608,15.9109428 L2.9432519,20.0550714 C3.09099439,20.3122228 3.39830345,20.41984 3.66424173,20.3122228 L6.60731242,19.1102086 C7.21597797,19.5825944 7.88381796,19.983357 8.60487983,20.2882572 L9.04803525,23.4576344 C9.09531357,23.7387514 9.33755866,23.96 9.63311567,23.96 L14.3609473,23.96 C14.6564143,23.96 14.8988395,23.7387514 14.9461178,23.4576344 L15.3892732,20.2882572 C16.1103351,19.983357 16.778085,19.5886997 17.3867596,19.1102086 L20.3299023,20.3122228 C20.5957415,20.4138258 20.9030956,20.3122228 21.0507841,20.0550714 L23.41479,15.9109428 C23.5624784,15.6537914 23.4975495,15.3309397 23.272955,15.1454117 L20.7790913,13.1661114 Z M11.9971216,16.1860456 C9.71002174,16.1860456 7.86022383,14.3142714 7.86022383,12 C7.86022383,9.68572861 9.71002174,7.81395444 11.9971216,7.81395444 C14.2841313,7.81395444 16.1339292,9.68572861 16.1339292,12 C16.1339292,14.3142714 14.2841313,16.1860456 11.9971216,16.1860456 L11.9971216,16.1860456 Z" id="path-1"></path>
    </defs>
    <g id="UX-391-&amp;-392-VidyoConnector-Sample-app-on-Windows-&amp;-MacOS-v8" stroke="none" stroke-width="1" fill="none" fill-rule="evenodd">
        <g id="Assets" transform="translate(-843.000000, -10.000000)">
            <g id="tab-1-copy-2" transform="translate(810.000000, 0.000000)">
                <g id="icon_general_disabled" transform="translate(33.000000, 10.000000)">
                    <mask id="mask-2" fill="white">
                        <use xlink:href="#path-1"></use>
                    </mask>
                    <use id="icon_settings" fill="#FFFFFF" opacity="0.25" xlink:href="#path-1"></use>
                </g>
            </g>
        </g>
    </g>
</svg>