<?xml version="1.0" encoding="UTF-8"?>
<svg width="24px" height="24px" viewBox="0 0 24 24" version="1.1" xmlns="http://www.w3.org/2000/svg" xmlns:xlink="http://www.w3.org/1999/xlink">
    <title>icon_audio</title>
    <g id="UX-391-&amp;-392-VidyoConnector-Sample-app-on-Windows-&amp;-MacOS-v8" stroke="none" stroke-width="1" fill="none" fill-rule="evenodd" opacity="0.5">
        <g id="Assets" transform="translate(-663.000000, -74.000000)" fill="#FFFFFF">
            <g id="tab-2" transform="translate(630.000000, 64.000000)">
                <g id="icon_audio" transform="translate(33.000000, 10.000000)">
                    <path d="M14,1.99964581 C18.6771171,3.05216695 22,7.2059177 22,12 C22,16.7940823 18.6771171,20.9478331 14,22.0003542 L14,22.0003542 L14,19.6457339 C17.3887365,18.6452098 19.7145716,15.5334156 19.7145716,12.0000625 C19.7145716,8.46670946 17.3887365,5.35491524 14,4.35439109 L14,4.35439109 Z M11.9997916,2.99912492 L11.9997916,21.0010001 L6.44421293,15.3754141 L2,15.3754141 L2,8.62471091 L6.44421293,8.62471091 L11.9997916,2.99912492 Z M14,6.99954163 C15.8567612,7.97233419 17.0145796,9.90082556 17.0003125,11.9969372 C17.0131031,14.094245 15.8560467,16.0238776 14,17.0005834 L14,17.0005834 Z" id="Combined-Shape"></path>
                </g>
            </g>
        </g>
    </g>
</svg>