<?xml version="1.0" encoding="UTF-8"?>
<svg width="32px" height="32px" viewBox="0 0 32 32" version="1.1" xmlns="http://www.w3.org/2000/svg" xmlns:xlink="http://www.w3.org/1999/xlink">
    <title>3429D27E-4FDD-4149-90A2-01267647C44F</title>
    <g id="UX-391-&amp;-392.-iPhone" stroke="none" stroke-width="1" fill="none" fill-rule="evenodd">
        <g id="B04." transform="translate(-319.000000, -770.000000)" fill="#FFFFFF">
            <g id="UI-Elements-/-In-Call-Panel-/-Expanded" transform="translate(0.000000, 716.000000)">
                <g id="Icons-/-More-/-On" transform="translate(319.000000, 54.000000)">
                    <path d="M6,14 C7.38071187,14 8.5,15.1192881 8.5,16.5 C8.5,17.8807119 7.38071187,19 6,19 C4.61928813,19 3.5,17.8807119 3.5,16.5 C3.5,15.1192881 4.61928813,14 6,14 Z M16,14 C17.3807119,14 18.5,15.1192881 18.5,16.5 C18.5,17.8807119 17.3807119,19 16,19 C14.6192881,19 13.5,17.8807119 13.5,16.5 C13.5,15.1192881 14.6192881,14 16,14 Z M26,14 C27.3807119,14 28.5,15.1192881 28.5,16.5 C28.5,17.8807119 27.3807119,19 26,19 C24.6192881,19 23.5,17.8807119 23.5,16.5 C23.5,15.1192881 24.6192881,14 26,14 Z" id="ic_more"></path>
                </g>
            </g>
        </g>
    </g>
</svg>