<?xml version="1.0" encoding="UTF-8"?>
<svg width="32px" height="32px" viewBox="0 0 32 32" version="1.1" xmlns="http://www.w3.org/2000/svg" xmlns:xlink="http://www.w3.org/1999/xlink">
    <title>1E41D716-A2BB-4CCE-BAD4-6D519AE1C3A9</title>
    <g id="UX-391-&amp;-392-VidyoConnector-Sample-app-on-Windows-&amp;-MacOS-v8" stroke="none" stroke-width="1" fill="none" fill-rule="evenodd">
        <g id="Assets" transform="translate(-746.000000, -612.000000)">
            <g id="toolbar" transform="translate(0.000000, 596.000000)">
                <g id="icon_multiple_share_active" transform="translate(746.000000, 16.000000)">
                    <rect id="Rectangle" x="0" y="0" width="32" height="32"></rect>
                    <g id="Group-2" transform="translate(4.000000, 6.000000)">
                        <path d="M22.83,-7.99360578e-15 L4.59857143,-7.99360578e-15 C4.34142857,-7.99360578e-15 4.11428571,0.214285714 4.11428571,0.475714286 L4.11428571,11.8628571 C4.11428571,12.1285714 4.33714286,12.3385714 4.59857143,12.3385714 L22.83,12.3385714 C23.0871429,12.3385714 23.3142857,12.1242857 23.3142857,11.8628571 L23.3142857,0.475714286 C23.3142857,0.214285714 23.0914286,-7.99360578e-15 22.83,-7.99360578e-15 Z M21.9428571,10.9714286 L5.48571429,10.9714286 L5.48571429,1.37142857 L21.9428571,1.37142857 L21.9428571,10.9714286 Z" id="Shape" fill="#80B02F"></path>
                        <rect id="Rectangle" fill="#000000" x="-9.23705556e-14" y="4.11428571" width="19.2" height="11.6571429"></rect>
                        <path d="M11.5928571,19.2 C12.7928571,19.1785714 13.3714286,19.0328571 12.8357143,18.6642857 C12.3,18.2914286 11.6142857,18.0085714 11.5928571,17.7 C11.58,17.5414286 11.52,15.7714286 11.52,15.7714286 L9.6,15.7714286 L7.68,15.7714286 C7.68,15.7714286 7.61571429,17.5414286 7.60714286,17.7 C7.58571429,18.0042857 6.9,18.2914286 6.36428571,18.6642857 C5.82857143,19.0371429 6.40714286,19.1785714 7.60714286,19.2 L11.5928571,19.2 Z" id="Shape" fill="#80B02F"></path>
                        <path d="M18.7157143,4.11428571 L0.484285714,4.11428571 C0.227142857,4.11428571 -9.23705556e-14,4.32857143 -9.23705556e-14,4.59 L-9.23705556e-14,15.9771429 C-9.23705556e-14,16.2428571 0.222857143,16.4528571 0.484285714,16.4528571 L18.7157143,16.4528571 C18.9728571,16.4528571 19.2,16.2385714 19.2,15.9771429 L19.2,4.59 C19.2,4.32857143 18.9771429,4.11428571 18.7157143,4.11428571 Z M17.8285714,15.0857143 L1.37142857,15.0857143 L1.37142857,5.48571429 L17.8285714,5.48571429 L17.8285714,15.0857143 Z" id="Shape" fill="#80B02F"></path>
                    </g>
                </g>
            </g>
        </g>
    </g>
</svg>