<?xml version="1.0" encoding="UTF-8"?>
<svg width="32px" height="32px" viewBox="0 0 32 32" version="1.1" xmlns="http://www.w3.org/2000/svg" xmlns:xlink="http://www.w3.org/1999/xlink">
    <title>369A1ECF-8A30-4EE4-B330-4ACAB470BF74</title>
    <g id="UX-391-&amp;-392-VidyoConnector-Sample-app-on-Windows-&amp;-MacOS-v8" stroke="none" stroke-width="1" fill="none" fill-rule="evenodd">
        <g id="Assets" transform="translate(-170.000000, -652.000000)">
            <g id="toolbar" transform="translate(0.000000, 596.000000)">
                <g id="icon_microphone" transform="translate(170.000000, 56.000000)">
                    <rect id="Rectangle" x="0" y="0" width="32" height="32"></rect>
                    <path d="M9.94358953,15.4751823 C9.94358953,18.6325651 12.8461169,20.8427706 16,20.8427706 C19.1595077,20.8427706 22.0562855,18.6325651 22.0562855,15.4751823 L22.0562855,15.4751823 L23.9993864,15.4751823 C23.9993864,19.0694066 20.8906249,22.0374289 17.1426624,22.5477648 L17.1426624,22.5477648 L17.1426624,26 L14.8567127,26 L14.8567127,22.5478898 C11.1087502,22.037179 8.00061356,19.0694066 8.00061356,15.4751823 L8.00061356,15.4751823 Z M16,6.00278381 C17.8183303,5.92870829 19.3527587,7.34201387 19.4281121,9.16029163 L19.4281121,9.16029163 L19.4166129,15.4751823 C19.3429595,17.2895862 17.8145698,18.7020117 16,18.6325651 C14.183153,18.7027346 12.651084,17.2916582 12.5718879,15.4751823 L12.5718879,15.4751823 L12.5718879,9.16029163 C12.6488634,7.34276601 14.1822863,5.93038664 16,6.00278381 Z" id="Combined-Shape" fill="#FFFFFF" fill-rule="nonzero"></path>
                </g>
            </g>
        </g>
    </g>
</svg>