<?xml version="1.0" encoding="UTF-8"?>
<svg width="32px" height="32px" viewBox="0 0 32 32" version="1.1" xmlns="http://www.w3.org/2000/svg" xmlns:xlink="http://www.w3.org/1999/xlink">
    <title>38F83F4C-EA7A-4907-B03A-523D748D55D2</title>
    <g id="UX-391-&amp;-392-VidyoConnector-Sample-app-on-Windows-&amp;-MacOS-v8" stroke="none" stroke-width="1" fill="none" fill-rule="evenodd">
        <g id="Assets" transform="translate(-698.000000, -652.000000)">
            <g id="toolbar" transform="translate(0.000000, 596.000000)">
                <g id="icon_chat" transform="translate(698.000000, 56.000000)">
                    <rect id="Rectangle" x="0" y="0" width="32" height="32"></rect>
                    <path d="M16.0038418,23.4384615 C17.1159141,23.4384615 18.1741143,23.2192308 19.1322665,22.8269231 C19.1553545,22.8153846 19.1745945,22.8076923 19.1976825,22.8 C19.2015305,22.8 19.2053785,22.8 19.2053785,22.7961538 C19.3400586,22.7461538 19.4862826,22.7192308 19.6363546,22.7192308 C19.8018187,22.7192308 19.9595867,22.75 20.1019627,22.8115385 L23.3342835,24 L22.4838753,20.6 C22.4838753,20.3961538 22.5415953,20.2038462 22.6339473,20.0384615 L22.6339473,20.0384615 C22.6647313,19.9884615 22.6955153,19.9384615 22.7301473,19.8961538 C23.5343795,18.6923077 23.9999876,17.2615385 23.9999876,15.7269231 C24.0076836,11.4576923 20.4251948,8 16.0038418,8 C11.5824888,8 8,11.4576923 8,15.7192308 C8,19.9846154 11.5824888,23.4384615 16.0038418,23.4384615 L16.0038418,23.4384615 Z" id="chat" fill="#FFFFFF"></path>
                </g>
            </g>
        </g>
    </g>
</svg>