<?xml version="1.0" encoding="UTF-8"?>
<svg width="32px" height="32px" viewBox="0 0 32 32" version="1.1" xmlns="http://www.w3.org/2000/svg" xmlns:xlink="http://www.w3.org/1999/xlink">
    <title>D944852C-74F7-4980-9E01-A1118FE6C447</title>
    <g id="UX-391-&amp;-392-VidyoConnector-Sample-app-on-Windows-&amp;-MacOS-v8" stroke="none" stroke-width="1" fill="none" fill-rule="evenodd">
        <g id="Assets" transform="translate(-458.000000, -652.000000)">
            <g id="toolbar" transform="translate(0.000000, 596.000000)">
                <g id="icon_unraise_hand" transform="translate(458.000000, 56.000000)">
                    <rect id="Rectangle" x="0" y="0" width="32" height="32"></rect>
                    <path d="M20.0040698,23.5810909 C20.0040698,23.580672 20.0040698,21.9924759 20.0090326,20.614656 C20.552148,19.894663 20.85,19.0101504 20.85,18.1073455 L20.85,10.304 C20.85,9.95694778 20.5659366,9.67563636 20.2155523,9.67563636 C19.8651398,9.67563636 19.5811047,9.95694778 19.5811047,10.304 L19.5811047,14.3371636 C19.5811047,14.5684573 19.3916727,14.7560727 19.1581395,14.7560727 C18.92455,14.7560727 18.7351744,14.5684573 18.7351744,14.3371636 L18.7351744,9.46618182 C18.7351744,9.1191296 18.451111,8.83781818 18.1007267,8.83781818 C17.7503142,8.83781818 17.4662791,9.1191296 17.4662791,9.46618182 L17.4662791,14.3371636 C17.4662791,14.5684573 17.2768471,14.7560727 17.043314,14.7560727 C16.8097244,14.7560727 16.6203488,14.5684573 16.6203488,14.3371636 L16.6203488,8.62836364 C16.6203488,8.28131142 16.3362855,8 15.9859012,8 C15.6354887,8 15.3514535,8.28131142 15.3514535,8.62836364 L15.3514535,14.3371636 C15.3514535,14.5684573 15.1620215,14.7560727 14.9284884,14.7560727 C14.6948988,14.7560727 14.5055233,14.5684573 14.5055233,14.3371636 L14.5055233,9.46618182 C14.5055233,9.1191296 14.2214599,8.83781818 13.8710756,8.83781818 C13.5206631,8.83781818 13.2366279,9.1191296 13.2366279,9.46618182 L13.2366279,16.4317091 C13.2366279,16.6630028 13.0471959,16.8506182 12.8136628,16.8506182 C12.5800733,16.8506182 12.3906977,16.6630028 12.3906977,16.4317091 L12.3906977,14.5466182 C12.3906977,14.199566 12.1066343,13.9182545 11.75625,13.9182545 C11.4058375,13.9182545 11.15,14.199566 11.15,14.5466182 L11.15,17.6884364 C11.15,19.3599395 12.1300666,20.8674257 13.659593,21.5289949 L13.659593,23.5810909 C13.659593,23.8126359 13.8487148,24 14.0825581,24 L19.5811047,24 C19.8148916,24 20.0040698,23.8126359 20.0040698,23.5810909 Z" id="Path" fill="#80B02F"></path>
                </g>
            </g>
        </g>
    </g>
</svg>