<?xml version="1.0" encoding="UTF-8"?>
<svg width="16px" height="16px" viewBox="0 0 16 16" version="1.1" xmlns="http://www.w3.org/2000/svg" xmlns:xlink="http://www.w3.org/1999/xlink">
    <title>B8DA3833-0959-4940-B567-4983FB41ADA2</title>
    <g id="UX-391-&amp;-392.-iPhone" stroke="none" stroke-width="1" fill="none" fill-rule="evenodd">
        <g id="A05" transform="translate(-48.000000, -88.000000)" fill="#353535">
            <g id="dialog" transform="translate(16.000000, 62.000000)">
                <g id="UI-Elements-/--Misc-/-Arrows-/-Left" transform="translate(32.000000, 26.000000)">
                    <path d="M7.9510284,16 C8.54162586,16 9,15.5310034 9,14.9357384 C9,14.638106 8.88540646,14.367531 8.68266405,14.1600902 L2.5122429,7.99098083 L8.68266405,1.83990981 C8.88540646,1.632469 9,1.35287486 9,1.06426156 C9,0.468996618 8.54162586,0 7.9510284,0 C7.66895201,0 7.42213516,0.108229989 7.22820764,0.306651635 L0.370225269,7.16121759 C0.123408423,7.3957159 0,7.6843292 0,8 C0,8.3156708 0.123408423,8.58624577 0.361410382,8.82976325 L7.21939275,15.6933484 C7.42213516,15.89177 7.66895201,16 7.9510284,16 Z" id="arrow"></path>
                </g>
            </g>
        </g>
    </g>
</svg>