<?xml version="1.0" encoding="UTF-8"?>
<svg width="32px" height="32px" viewBox="0 0 32 32" version="1.1" xmlns="http://www.w3.org/2000/svg" xmlns:xlink="http://www.w3.org/1999/xlink">
    <title>784BBEA7-2627-423B-83A5-73A24C85FF3F</title>
    <defs>
        <path d="M19.3361593,8.00025658 L19.5519646,8.00246516 C21.1820697,8.04691819 22.7254012,8.85818603 23.2274488,10.3029096 C23.4691754,10.9974882 23.4195905,11.7754162 23.2956281,12.4866648 C23.2522413,12.7589396 23.1902601,13.0589975 23.0353071,13.3034892 C23.6799115,13.1256771 23.2646375,14.4259283 23.1964582,14.6148537 C23.1034864,14.8871285 23.0353071,15.7817457 22.4960708,15.6483866 C22.4340897,16.2151628 22.4030991,16.8875149 22.0684007,17.3876115 C21.981627,17.515414 21.5849474,17.8099153 21.5849474,17.948831 C21.5849474,18.1599829 21.5911455,18.3711348 21.6035418,18.5822867 C21.6221361,18.8490049 21.6221361,19.1490629 21.721306,19.4046678 C21.826674,19.6658294 22.3287216,19.7602921 22.5828445,19.8380849 C23.4195905,20.0992465 24.3245158,20.1159163 25.1612618,20.3770779 C26.8967349,20.9160709 28,22.3607945 28,24 L28,24 L10.7692308,24 C10.7692308,22.7942115 11.3332595,21.6773291 12.4179303,20.9605239 C13.347648,20.3381815 14.3765357,20.2437188 15.492197,20.0381235 C15.9074709,19.9603307 16.9425567,19.7825186 17.0665191,19.3602148 C17.1904815,18.937911 17.1780852,18.4711542 17.1842833,18.0377371 C17.1904815,17.8932647 17.1346984,17.8821515 17.0231323,17.7710189 C16.8,17.5431971 16.6078583,17.2931488 16.5148866,16.9986475 C16.3785279,16.5596738 16.3227449,16.0984736 16.2731599,15.6483866 C15.7091312,15.7873024 15.6223575,14.7704393 15.5231876,14.4870512 C15.4550083,14.2870125 15.1327061,13.142347 15.7339236,13.3034892 C15.5479801,13.0034312 15.4859989,12.6311371 15.4426121,12.2977394 C15.3434422,11.5642643 15.3186497,10.8030062 15.6161594,10.1028709 C16.2359712,8.66370401 17.897067,7.9524555 19.5519646,8.00246516 Z M9.48522173,10.8586396 C10.5032975,10.8856289 11.467179,11.3781844 11.7807309,12.2553379 C11.9317003,12.6770464 11.9007322,13.1493599 11.823312,13.5811893 C11.7962149,13.746499 11.7575048,13.9286771 11.6607296,14.0771184 C12.0633146,13.9691611 11.803957,14.7585993 11.7613758,14.873304 C11.7033107,15.0386137 11.6607296,15.5817742 11.3239517,15.5008062 C11.2852416,15.8449203 11.2658865,16.253134 11.0568519,16.5567641 C11.0026578,16.6343585 10.7549131,16.8131629 10.7549131,16.8975046 C10.7549131,17.0257039 10.7587841,17.1539033 10.7665262,17.2821027 C10.7781392,17.4440387 10.7781392,17.6262168 10.8400754,17.7814055 C10.8870805,17.8946643 11.060486,17.9562854 11.2135771,17.9994644 L11.3781458,18.0445515 C11.9007322,18.2031139 12.4673789,18.2468022 12.9884861,18.3717973 C13.5136589,18.5072392 13.8951507,18.4569898 14.4615385,19.3565499 C14.3537388,19.3565499 13.8269122,19.4919512 13.3865723,19.6104273 L13.1113728,19.6852324 C12.9019631,19.7426943 12.7539185,19.7844849 12.7539185,19.7844849 C12.7539185,19.7844849 12.2183999,19.930806 11.823312,20.1264103 C11.423679,20.324265 11.1638233,20.5714286 11.056852,20.5714286 L11.056852,20.5714286 L4,20.5714286 C4,19.8393427 4.35226195,19.1612355 5.02968876,18.7260324 C5.61034032,18.3481816 6.25292805,18.2908293 6.94970992,18.1660036 C7.20906761,18.1187722 7.85552635,18.0108149 7.93294656,17.7544161 C8.01036677,17.4980174 8.00262475,17.2146293 8.00649576,16.9514832 C8.01036677,16.8637679 7.97552767,16.8570205 7.90584949,16.7895472 C7.76649311,16.6512268 7.64649179,16.4994118 7.58842663,16.3206074 C7.5032644,16.0540877 7.46842531,15.7740733 7.43745723,15.5008062 C7.08519528,15.5851479 7.03100114,14.9677667 6.96906497,14.7957096 C6.92648386,14.6742576 6.72519132,13.9792821 7.10067932,14.0771184 C6.98454901,13.8949404 6.94583891,13.6689047 6.91874184,13.4664846 C6.85680567,13.0211605 6.84132163,12.558968 7.02713013,12.1338859 C7.41423117,11.260106 8.45166195,10.8282766 9.48522173,10.8586396 Z" id="path-1"></path>
    </defs>
    <g id="UX-391-&amp;-392-VidyoConnector-Sample-app-on-Windows-&amp;-MacOS-v8" stroke="none" stroke-width="1" fill="none" fill-rule="evenodd">
        <g id="Assets" transform="translate(-602.000000, -652.000000)">
            <g id="toolbar" transform="translate(0.000000, 596.000000)">
                <g id="icon_participants" transform="translate(602.000000, 56.000000)">
                    <rect id="Rectangle" x="0" y="0" width="32" height="32"></rect>
                    <mask id="mask-2" fill="white">
                        <use xlink:href="#path-1"></use>
                    </mask>
                    <use id="ic_participant" fill="#FFFFFF" xlink:href="#path-1"></use>
                </g>
            </g>
        </g>
    </g>
</svg>