<?xml version="1.0" encoding="UTF-8"?>
<svg width="68px" height="80px" viewBox="0 0 68 80" version="1.1" xmlns="http://www.w3.org/2000/svg" xmlns:xlink="http://www.w3.org/1999/xlink">
    <title>Logo-Vidyo.io-Vertical-Light</title>
    <g id="UX-391-&amp;-392-VidyoConnector-Sample-app-on-Windows-&amp;-MacOS-v8" stroke="none" stroke-width="1" fill="none" fill-rule="evenodd">
        <g id="A01" transform="translate(-116.000000, -36.000000)" fill-rule="nonzero">
            <g id="Logo-Vidyo.io-Vertical-Light" transform="translate(116.500000, 36.000000)">
                <polygon id="Path" fill="#F9C11F" points="45.8890756 21.8890756 57.1630252 15.2605042 30.4941176 0.208403361 3.79831933 16.5042017 14.8840336 22.5680672 30.4941176 13.0554622"></polygon>
                <polygon id="Path" fill="#8AC23F" points="47.2537815 34.1243697 57.1630252 28.087395 45.8890756 21.8890756 35.7983193 27.8319328"></polygon>
                <polygon id="Path" fill="#8AC23F" points="14.8840336 22.5680672 3.79831933 29.3378151 13.8957983 34.8638655 25.2168067 28.0672269"></polygon>
                <polygon id="Path" fill="#FDDD7D" points="30.4941176 24.9008403 35.7983193 27.8319328 45.8890756 21.8890756 30.4941176 13.0554622 14.8840336 22.5680672 25.2168067 28.0672269"></polygon>
                <polygon id="Path" fill="#0A8CCC" points="30.4941176 55.8117647 57.1630252 39.5697479 47.2537815 34.1243697 30.4941176 44.1210084 13.8957983 34.8638655 3.79831933 40.8134454"></polygon>
                <polygon id="Path" fill="#3EB2E0" points="47.2537815 34.1243697 35.7983193 27.8319328 30.487395 30.9512605 25.2168067 28.0672269 13.8957983 34.8638655 30.4941176 44.1210084"></polygon>
                <polygon id="Path" fill="#FFFFFF" points="25.2168067 28.0672269 30.487395 30.9512605 35.7983193 27.8319328 30.4941176 24.9008403"></polygon>
                <polygon id="Path" fill="#FFFFFF" points="8.51092437 66.010084 4.99495798 75.2941176 3.36134454 75.2941176 0 66.010084 1.61344538 66.010084 4.23529412 73.1092437 6.92436975 66.010084"></polygon>
                <path d="M11.8789916,63.4084034 C11.8772252,63.6681128 11.7718925,63.9163796 11.5863626,64.0981233 C11.4008326,64.2798669 11.150447,64.3800589 10.8907563,64.3764706 C10.344969,64.3764706 9.90252101,63.9340226 9.90252101,63.3882353 C9.90252101,62.842448 10.344969,62.4 10.8907563,62.4 C11.1575425,62.3961602 11.4142418,62.5018438 11.6009924,62.6924056 C11.787743,62.8829675 11.8882197,63.1417492 11.8789916,63.4084034 L11.8789916,63.4084034 Z M11.6571429,75.2941176 L10.1243697,75.2941176 L10.1243697,66.010084 L11.6571429,66.010084 L11.6571429,75.2941176 Z" id="Shape" fill="#FFFFFF"></path>
                <path d="M21.297479,61.8487395 L22.8571429,61.8487395 L22.8571429,75.2941176 L21.297479,75.2941176 L21.297479,73.7008403 C20.5839401,74.86524 19.3011256,75.5579598 17.9361345,75.5159664 C15.3747899,75.5159664 13.5596639,73.4991597 13.5596639,70.6957983 C13.5596639,67.892437 15.4151261,65.7747899 17.9361345,65.7747899 C19.2582331,65.7278686 20.5174921,66.3398685 21.297479,67.4084034 L21.297479,61.8487395 Z M15.2067227,70.7294118 C15.2067227,72.7462185 16.4369748,74.1983193 18.1915966,74.1983193 C19.9462185,74.1983193 21.297479,72.7058824 21.297479,70.6890756 C21.297479,68.6722689 20.0672269,67.1596639 18.292437,67.1596639 C16.5176471,67.1596639 15.2067227,68.6117647 15.2067227,70.7294118 L15.2067227,70.7294118 Z" id="Shape" fill="#FFFFFF"></path>
                <polygon id="Path" fill="#FFFFFF" points="30.9647059 66.010084 32.6386555 66.010084 27.092437 79.7915966 25.4184874 79.7915966 27.3546218 75.0319328 24.0470588 66.010084 25.6806723 66.010084 28.1815126 72.907563"></polygon>
                <path d="M42.7092437,70.6890756 C42.7327265,71.9658743 42.2414318,73.1984118 41.3460658,74.1089535 C40.4506998,75.0194952 39.2265929,75.5314339 37.9495798,75.5294177 C35.1865546,75.5294177 33.2436975,73.512605 33.2436975,70.6487395 C33.2436975,67.7848739 35.1798319,65.7882353 38.0033613,65.7882353 C40.8268908,65.7882353 42.7092437,67.8252101 42.7092437,70.6890756 Z M34.8168067,70.6890756 C34.8168067,72.7462185 36.087395,74.1378151 37.9831933,74.1378151 C39.8789916,74.1378151 41.1294118,72.7058824 41.1294118,70.6890756 C41.1294118,68.6722689 39.8789916,67.2268908 38.0033613,67.2268908 C36.1277311,67.2268908 34.8168067,68.5714286 34.8168067,70.6689076 L34.8168067,70.6890756 Z" id="Shape" fill="#FFFFFF"></path>
                <path d="M46.6420168,74.4403361 C46.6309292,75.0167833 46.1565969,75.4761786 45.58009,75.4688222 C45.0035832,75.4614657 44.5411275,74.9901167 44.5447525,74.4135743 C44.5483775,73.8370319 45.0167235,73.3715352 45.5932773,73.3714286 C45.8772797,73.3636456 46.1517014,73.4744521 46.3506746,73.6772516 C46.5496477,73.8800511 46.6552074,74.1565334 46.6420168,74.4403361 L46.6420168,74.4403361 Z" id="Path" fill="#FFFFFF"></path>
                <path d="M51.2201681,63.4084034 C51.2184017,63.6681128 51.113069,63.9163796 50.927539,64.0981233 C50.7420091,64.2798669 50.4916234,64.3800589 50.2319328,64.3764706 C49.6861455,64.3764706 49.2436975,63.9340226 49.2436975,63.3882353 C49.2436975,62.842448 49.6861455,62.4 50.2319328,62.4 C50.4987189,62.3961602 50.7554182,62.5018438 50.9421688,62.6924056 C51.1289194,62.8829675 51.2293962,63.1417492 51.2201681,63.4084034 L51.2201681,63.4084034 Z M50.9983193,75.2941176 L49.4655462,75.2941176 L49.4655462,66.010084 L50.9983193,66.010084 L50.9983193,75.2941176 Z" id="Shape" fill="#FFFFFF"></path>
                <path d="M62.8033613,70.6890756 C62.8268441,71.9658743 62.3355494,73.1984118 61.4401834,74.1089535 C60.5448175,75.0194952 59.3207105,75.5314339 58.0436975,75.5294177 C55.2806723,75.5294177 53.3378151,73.512605 53.3378151,70.6487395 C53.3378151,67.7848739 55.2739496,65.7882353 58.097479,65.7882353 C60.9210084,65.7882353 62.8033613,67.8252101 62.8033613,70.6890756 Z M54.9109244,70.6890756 C54.9109244,72.7462185 56.1815126,74.1378151 58.0773109,74.1378151 C59.9731092,74.1378151 61.2235294,72.7058824 61.2235294,70.6890756 C61.2235294,68.6722689 59.9731092,67.2201681 58.097479,67.2201681 C56.2218487,67.2201681 54.9109244,68.5714286 54.9109244,70.6689076 L54.9109244,70.6890756 Z" id="Shape" fill="#FFFFFF"></path>
                <polygon id="Path" fill="#FFFFFF" points="63.5764706 65.8084034 63.3478992 65.8084034 63.3478992 64.2084034 62.8907563 64.2084034 62.8907563 64.0134454 64.0268908 64.0134454 64.0268908 64.2084034 63.5697479 64.2084034"></polygon>
                <polygon id="Path" fill="#FFFFFF" points="64.497479 65.8084034 64.2689076 65.8084034 64.2689076 64.0134454 64.4907563 64.0134454 65.1630252 65.3579832 65.8352941 64.0134454 66.0571429 64.0134454 66.0571429 65.8084034 65.8285714 65.8084034 65.8285714 64.4638655 65.1563025 65.8084034 64.4840336 64.4638655"></polygon>
            </g>
        </g>
    </g>
</svg>