<?xml version="1.0" encoding="UTF-8"?>
<svg width="32px" height="32px" viewBox="0 0 32 32" version="1.1" xmlns="http://www.w3.org/2000/svg" xmlns:xlink="http://www.w3.org/1999/xlink">
    <title>D2D4DC74-1108-47A9-A995-62FF85DF549B</title>
    <g id="UX-391-&amp;-392-VidyoConnector-Sample-app-on-Windows-&amp;-MacOS-v8" stroke="none" stroke-width="1" fill="none" fill-rule="evenodd">
        <g id="Assets" transform="translate(-314.000000, -652.000000)">
            <g id="toolbar" transform="translate(0.000000, 596.000000)">
                <g id="icon_camera" transform="translate(314.000000, 56.000000)">
                    <rect id="Rectangle" x="0" y="0" width="32" height="32"></rect>
                    <path d="M18.3419071,8.99934368 C18.7818952,8.99934368 19.2038893,9.17399328 19.5149961,9.48512359 C19.826103,9.79625389 20.0006877,10.2182611 20.0006877,10.6582492 L20.0006877,21.3417508 C20.0006877,21.7817287 19.8260592,22.2037167 19.5149595,22.5148398 C19.2038598,22.8259629 18.781885,23.0006563 18.3419071,23.0006563 L7.65840554,23.0006563 C7.21848242,23.0006563 6.7965847,22.8258633 6.48555896,22.5147438 C6.17453323,22.2036243 6,21.7816739 6,21.3417508 L6,10.6582492 C6,10.2183146 6.17459421,9.79636456 6.48563979,9.48524865 C6.79668537,9.17413273 7.21859594,8.99934368 7.65853056,8.99934368 L18.3419071,8.99934368 Z M26,10.6670001 L26,21.333 L24.6673751,21.333 L20.6670001,18.0001875 L20.6670001,13.9998125 L24.6673751,10.6670001 L26,10.6670001 Z" id="Combined-Shape" fill="#FFFFFF" fill-rule="nonzero"></path>
                </g>
            </g>
        </g>
    </g>
</svg>