<?xml version="1.0" encoding="UTF-8"?>
<svg width="32px" height="32px" viewBox="0 0 32 32" version="1.1" xmlns="http://www.w3.org/2000/svg" xmlns:xlink="http://www.w3.org/1999/xlink">
    <title>D4C5EC36-9EE7-497F-B903-5CB5394B0202</title>
    <defs>
        <path d="M22.107194,16.7800076 C22.1400832,16.5240076 22.1647032,16.2639848 22.1647032,16 C22.1647032,15.7360152 22.1400832,15.4759924 22.107194,15.2199924 L23.8461277,13.8960457 C24.0023673,13.7760305 24.0475979,13.5600152 23.9447954,13.3839848 L22.3003323,10.6119985 C22.1975925,10.440003 21.9838436,10.368 21.7987867,10.440003 L19.7514457,11.2440015 C19.3280199,10.928 18.8634355,10.6599985 18.3618273,10.456003 L18.0535453,8.3359939 C18.016584,8.14799848 17.8479404,8 17.6423981,8 L14.3534718,8 C14.1478669,8 13.9793486,8.14799848 13.9464593,8.3359939 L13.6381773,10.456003 C13.136569,10.6599985 12.6719847,10.9240015 12.2485652,11.2440015 L10.2012116,10.440003 C10.0162111,10.3719985 9.80243088,10.440003 9.6996535,10.6119985 L8.05519032,13.3839848 C7.95241293,13.5559924 7.99763097,13.7719467 8.15385811,13.8960457 L9.8887699,15.2199924 C9.85588063,15.4759924 9.83121055,15.7360152 9.83121055,16 C9.83121055,16.2639848 9.85588063,16.5240076 9.8887699,16.7800076 L8.15385811,18.1039543 C7.99763097,18.2239695 7.95241293,18.4399848 8.05519032,18.6160152 L9.6996535,21.3880076 C9.80243088,21.5600152 10.0162111,21.632 10.2012116,21.5600152 L12.2485652,20.7559924 C12.6719847,21.0719695 13.136569,21.3400381 13.6381773,21.5439848 L13.9464593,23.6639695 C13.9793486,23.8520076 14.1478669,24 14.3534718,24 L17.6423981,24 C17.8479404,24 18.016584,23.8520076 18.0494733,23.6639695 L18.3577553,21.5439848 C18.8593635,21.3400381 19.3238852,21.0760533 19.747311,20.7559924 L21.7947147,21.5600152 C21.9796463,21.6279771 22.1934578,21.5600152 22.2961976,21.3880076 L23.9407234,18.6160152 C24.0434632,18.4440076 23.9982953,18.2280533 23.8420557,18.1039543 L22.107194,16.7800076 Z M15.9979976,18.8000305 C14.4069716,18.8000305 13.1201557,17.5480076 13.1201557,16 C13.1201557,14.4519924 14.4069716,13.1999695 15.9979976,13.1999695 C17.5889609,13.1999695 18.8757768,14.4519924 18.8757768,16 C18.8757768,17.5480076 17.5889609,18.8000305 15.9979976,18.8000305 L15.9979976,18.8000305 Z" id="path-1"></path>
    </defs>
    <g id="UX-391-&amp;-392-VidyoConnector-Sample-app-on-Windows-&amp;-MacOS-v8" stroke="none" stroke-width="1" fill="none" fill-rule="evenodd">
        <g id="Assets" transform="translate(-170.000000, -612.000000)">
            <g id="toolbar" transform="translate(0.000000, 596.000000)">
                <g id="icon_settings" transform="translate(170.000000, 16.000000)">
                    <rect id="Rectangle" x="0" y="0" width="32" height="32"></rect>
                    <mask id="mask-2" fill="white">
                        <use xlink:href="#path-1"></use>
                    </mask>
                    <use id="settings" fill="#FFFFFF" xlink:href="#path-1"></use>
                </g>
            </g>
        </g>
    </g>
</svg>