<?xml version="1.0" encoding="UTF-8"?>
<svg width="34.3px" height="32px" viewBox="0 0 34.3 32" version="1.1" xmlns="http://www.w3.org/2000/svg" xmlns:xlink="http://www.w3.org/1999/xlink">
    <title>sendBubble</title>
    <g id="sendBubble" stroke="none" stroke-width="1" fill="none" fill-rule="evenodd">
        <g id="sendBubble-2" fill="#80B02F" fill-rule="nonzero">
            <path d="M29.9150952,0 C32.3645105,0 34.3,2.22592891 34.3,4.97175138 L34.3,25.0282486 C34.3,27.7740711 32.3645105,29.7458707 29.9150952,29.7458707 L6.21916309,30 C5.72861884,30 5.25667555,29.9107224 4.81555759,29.7458707 C3.2629784,30.9563815 1.6577647,31.7079374 0,32 C1.09207891,30.6211167 1.89893865,29.1526113 2.42057921,27.5944836 C2.0162911,26.8453507 1.78410352,25.967196 1.78410352,25.0282486 L1.78410352,4.97175138 C1.78410352,2.22592891 3.76974732,0 6.21916309,0 L29.9150952,0 Z" id="BG-bubble" transform="translate(17.150000, 16.000000) scale(-1, 1) translate(-17.150000, -16.000000) "></path>
        </g>
    </g>
</svg>