<?xml version="1.0" encoding="UTF-8"?>
<svg width="16px" height="16px" viewBox="0 0 16 16" version="1.1" xmlns="http://www.w3.org/2000/svg" xmlns:xlink="http://www.w3.org/1999/xlink">
    <title>F15DB261-8112-4000-B55A-11DAF2ECF311</title>
    <g id="UX-391-&amp;-392.-iPhone" stroke="none" stroke-width="1" fill="none" fill-rule="evenodd">
        <g id="A04" transform="translate(-311.000000, -261.000000)" fill="#353535">
            <g id="Dialogue" transform="translate(16.000000, 235.000000)">
                <g id="UI-Elements-/-Misc/-Clear" transform="translate(295.000000, 26.000000)">
                    <path d="M3.07431174,1.55987927 L3.17584556,1.64957103 L7.99933333,6.47533333 L12.8241544,1.64957103 L12.9256883,1.55987927 C13.3485373,1.23095365 13.9605128,1.26013765 14.3498418,1.64788605 C14.7716148,2.06794682 14.7723706,2.74975428 14.3515299,3.17074564 L14.3515299,3.17074564 L9.52433333,7.99933333 L14.3515299,12.8292544 C14.7723706,13.2502457 14.7716148,13.9320532 14.3498418,14.3521139 C13.9605128,14.7398623 13.3485373,14.7690464 12.9256883,14.4401207 L12.8241544,14.350429 L7.99933333,9.52433333 L3.17584556,14.350429 L3.07431174,14.4401207 C2.65146273,14.7690464 2.03948724,14.7398623 1.65015824,14.3521139 C1.22838516,13.9320532 1.22762937,13.2502457 1.64847014,12.8292544 L1.64847014,12.8292544 L6.47533333,7.99933333 L1.64847014,3.17074564 C1.22762937,2.74975428 1.22838516,2.06794682 1.65015824,1.64788605 C2.03948724,1.26013765 2.65146273,1.23095365 3.07431174,1.55987927 Z" id="Combined-Shape"></path>
                </g>
            </g>
        </g>
    </g>
</svg>