<?xml version="1.0" encoding="UTF-8"?>
<svg width="20px" height="20px" viewBox="0 0 20 20" version="1.1" xmlns="http://www.w3.org/2000/svg" xmlns:xlink="http://www.w3.org/1999/xlink">
    <title>A474D682-CCE0-400E-8CEE-7BA784BBC641</title>
    <g id="UX-391-&amp;-392.-iPhone" stroke="none" stroke-width="1" fill="none" fill-rule="evenodd">
        <g id="B11.." transform="translate(-20.000000, -54.000000)" fill="#FFFFFF">
            <g id="UI-Elements-/--Misc-/-Arrows-/-Left" transform="translate(20.000000, 54.000000)">
                <path d="M9.9387855,20 C10.6770323,20 11.25,19.4137542 11.25,18.6696731 C11.25,18.2976325 11.1067581,17.9594138 10.8533301,17.7001127 L3.14030362,9.98872604 L10.8533301,2.29988726 C11.1067581,2.04058625 11.25,1.69109357 11.25,1.33032694 C11.25,0.586245772 10.6770323,0 9.9387855,0 C9.58619001,0 9.27766895,0.135287486 9.03525955,0.383314543 L0.462781587,8.95152198 C0.154260529,9.24464487 0,9.6054115 0,10 C0,10.3945885 0.154260529,10.7328072 0.451762977,11.0372041 L9.02424094,19.6166855 C9.27766895,19.8647125 9.58619001,20 9.9387855,20 Z" id="arrow"></path>
            </g>
        </g>
    </g>
</svg>