<?xml version="1.0" encoding="UTF-8"?>
<svg width="32px" height="32px" viewBox="0 0 32 32" version="1.1" xmlns="http://www.w3.org/2000/svg" xmlns:xlink="http://www.w3.org/1999/xlink">
    <title>BDECDD73-058B-412E-916E-FB02D9224840</title>
    <g id="UX-391-&amp;-392-VidyoConnector-Sample-app-on-Windows-&amp;-MacOS-v8" stroke="none" stroke-width="1" fill="none" fill-rule="evenodd">
        <g id="Assets" transform="translate(-842.000000, -652.000000)">
            <g id="toolbar" transform="translate(0.000000, 596.000000)">
                <g id="icon_fecc" transform="translate(842.000000, 56.000000)">
                    <rect id="Rectangle" x="0" y="0" width="32" height="32"></rect>
                    <path d="M15.9996621,8 C20.4110318,8 24,11.5889682 24,15.9996621 C24,20.4110318 20.4110318,24 15.9996621,24 C11.5889682,24 8,20.4110318 8,15.9996621 C8,11.5889682 11.5889682,8 15.9996621,8 Z M15.9996443,9 C12.1398079,9 9,12.1405194 9,15.9996443 C9,19.8601921 12.1398079,23 15.9996443,23 C19.8594806,23 23,19.8601921 23,15.9996443 C23,12.1405194 19.8594806,9 15.9996443,9 Z M17.142,19.0513333 L17.9453333,19.9133333 L16,22 L14.0546667,19.9133333 L14.858,19.0513333 L16,20.2766667 L17.142,19.0513333 Z M12.0866667,14.0546667 L12.9486667,14.858 L11.7233333,16 L12.9486667,17.142 L12.0866667,17.9453333 L10,16 L12.0866667,14.0546667 Z M19.9126667,14.0546667 L22,16 L19.9126667,17.9453333 L19.0513333,17.142 L20.276,16 L19.0513333,14.858 L19.9126667,14.0546667 Z M16,10 L17.9453333,12.0866667 L17.142,12.9486667 L16,11.7233333 L14.858,12.9486667 L14.0546667,12.0866667 L16,10 Z" fill="#FFFFFF"></path>
                </g>
            </g>
        </g>
    </g>
</svg>