<svg width="32" height="32" viewBox="0 0 32 32" fill="none" xmlns="http://www.w3.org/2000/svg">
<path d="M10 8.93325V6H22V8.93325H10ZM15.997 19.7332C16.3712 19.7332 16.6902 19.6023 16.9542 19.3405C17.2181 19.0785 17.35 18.7604 17.35 18.3863C17.35 18.0121 17.219 17.6931 16.957 17.4293C16.6952 17.1653 16.3772 17.0332 16.003 17.0332C15.6288 17.0332 15.3097 17.1642 15.0457 17.4262C14.7819 17.6882 14.65 18.0063 14.65 18.3805C14.65 18.7547 14.781 19.0737 15.043 19.3375C15.3048 19.6013 15.6228 19.7332 15.997 19.7332ZM12.1668 26V14.95L10 11.75V10.6H22V11.75L19.8332 14.95V26H12.1668Z" fill="#E8EAED"/>
</svg>
