<?xml version="1.0" encoding="UTF-8"?>
<svg width="12px" height="12px" viewBox="0 0 12 12" version="1.1" xmlns="http://www.w3.org/2000/svg" xmlns:xlink="http://www.w3.org/1999/xlink">
    <title>B532E556-FBED-4B5A-B381-081E492249A8</title>
    <g id="UX-391-&amp;-392-VidyoConnector-Sample-app-on-Windows-&amp;-MacOS-v8" stroke="none" stroke-width="1" fill="none" fill-rule="evenodd">
        <g id="Assets" transform="translate(-208.000000, -172.000000)" fill="#FFFFFF">
            <g id="icon_muted_microphone" transform="translate(208.000000, 172.000000)">
                <path d="M1.70275,1.00054103 L4.2858125,3.58360353 L7.3723125,6.67010353 L11,10.297791 L10.29725,11.000541 L8.0635625,8.76679103 C7.60196883,9.02702897 7.09594559,9.19902388 6.571375,9.27397853 L6.571375,9.27397853 L6.571375,11.0002285 L5.4283125,11.0002285 L5.4283125,9.27404103 C3.5541875,9.01866603 2,7.53466603 2,5.73741603 L2,5.73741603 L2.971625,5.73741603 C2.971625,7.31622853 4.4229375,8.42141603 6,8.42141603 C6.48437513,8.41830115 6.96230707,8.31012514 7.4008125,8.10435353 L7.4008125,8.10435353 L6.52825,7.23179103 C6.35729752,7.28584744 6.17928506,7.31430163 6,7.31622853 C5.09150682,7.351316 4.32541358,6.64572365 4.2858125,5.73741603 L4.2858125,5.73741603 L4.2858125,4.98910353 L1,1.70329103 L1.70275,1.00054103 Z M10,5.73741603 C9.99354251,6.3268232 9.82356282,6.90286306 9.509,7.40135353 L9.509,7.40135353 L8.817875,6.71022853 C8.95459527,6.40401518 9.02627353,6.07275858 9.028375,5.73741603 L9.028375,5.73741603 Z M6,1.00085353 C6.90924772,0.963777891 7.67654181,1.67050423 7.7141875,2.57972853 L7.7141875,2.57972853 L7.70875,5.60110353 L4.3328125,2.22516603 C4.54397731,1.48438394 5.22997459,0.980616344 6,1.00085353 Z" id="Combined-Shape"></path>
            </g>
        </g>
    </g>
</svg>