<?xml version="1.0" encoding="UTF-8"?>
<svg width="24px" height="24px" viewBox="0 0 24 24" version="1.1" xmlns="http://www.w3.org/2000/svg" xmlns:xlink="http://www.w3.org/1999/xlink">
    <title>icon_help_disabled</title>
    <g id="UX-391-&amp;-392-VidyoConnector-Sample-app-on-Windows-&amp;-MacOS-v8" stroke="none" stroke-width="1" fill="none" fill-rule="evenodd" opacity="0.25">
        <g id="Assets" transform="translate(-843.000000, -458.000000)" fill="#FFFFFF">
            <g id="tab-8-copy-2" transform="translate(810.000000, 448.000000)">
                <g id="icon_help_disabled" transform="translate(33.000000, 10.000000)">
                    <path d="M13.2724957,19.8678621 L13.2724957,22.92 L10.4722596,22.92 L10.4722596,19.8678621 L13.2724957,19.8678621 Z M12.1623155,1.08 C14.0099922,1.08 15.4888516,1.62909234 16.6008268,2.73131127 C17.7128711,3.83353021 18.2678921,5.24040823 18.2678921,6.95180124 C18.2678921,7.98990418 18.0623569,8.8315528 17.6552218,9.47689118 C17.2480867,10.1222296 16.4260149,11.0720829 15.1872803,12.3246503 C14.2865016,13.2365384 13.7026214,14.0060024 13.4357087,14.6372929 C13.168727,15.2685834 13.034304,16.2004987 13.034304,17.4329668 L13.034304,17.4329668 L10.5298398,17.4329668 C10.5298398,16.0341573 10.6892556,14.9058598 11.0080872,14.0501632 C11.3269188,13.1923776 12.0240953,12.2124833 13.1034832,11.1062301 L13.1034832,11.1062301 L14.2289214,9.94587453 C14.5670154,9.61326376 14.8377254,9.26451592 15.0432606,8.90380937 C15.4177393,8.26653952 15.6060143,7.60722529 15.6060143,6.92183241 C15.6060143,5.9639105 15.3333021,5.13220347 14.7840115,4.42678335 C14.2365849,3.72136323 13.3281428,3.36865317 12.0624131,3.36858113 C10.4952502,3.36858113 9.41199609,3.97581011 8.81278878,5.18825094 C8.47669693,5.86363019 8.28262253,6.83754508 8.23657214,8.11013969 L8.23657214,8.11013969 L5.73210791,8.11013969 C5.73210791,5.99589646 6.30445825,4.29653421 7.44915892,3.00989171 C8.5938596,1.72324921 10.1648888,1.08 12.1623155,1.08 Z" id="icon_help"></path>
                </g>
            </g>
        </g>
    </g>
</svg>