<?xml version="1.0" encoding="UTF-8"?>
<svg width="32px" height="32px" viewBox="0 0 32 32" version="1.1" xmlns="http://www.w3.org/2000/svg" xmlns:xlink="http://www.w3.org/1999/xlink">
    <title>F606DDBA-56BF-4858-AFA4-0E660F814FB9</title>
    <g id="UX-391-&amp;-392-VidyoConnector-Sample-app-on-Windows-&amp;-MacOS-v8" stroke="none" stroke-width="1" fill="none" fill-rule="evenodd">
        <g id="Assets" transform="translate(-746.000000, -652.000000)">
            <g id="toolbar" transform="translate(0.000000, 596.000000)">
                <g id="icon_share_active" transform="translate(746.000000, 56.000000)">
                    <rect id="Rectangle" x="0" y="0" width="32" height="32"></rect>
                    <g id="screen-share" transform="translate(6.000000, 8.000000)" fill="#80B02F">
                        <path d="M19.4955357,0 L0.504464286,0 C0.236607143,0 0,0.223214286 0,0.495535714 L0,12.3571429 C0,12.6339286 0.232142857,12.8526786 0.504464286,12.8526786 L19.4955357,12.8526786 C19.7633929,12.8526786 20,12.6294643 20,12.3571429 L20,0.495535714 C20,0.223214286 19.7678571,0 19.4955357,0 Z M18.5714286,11.4285714 L1.42857143,11.4285714 L1.42857143,1.42857143 L18.5714286,1.42857143 L18.5714286,11.4285714 Z" id="Shape"></path>
                        <path d="M12.0758929,15.7142857 C13.3258929,15.6919643 13.9285714,15.5401786 13.3705357,15.15625 C12.8125,14.7678571 12.0982143,14.4732143 12.0758929,14.1517857 C12.0625,13.9866071 12,12.1428571 12,12.1428571 L10,12.1428571 L8,12.1428571 C8,12.1428571 7.93303571,13.9866071 7.92410714,14.1517857 C7.90178571,14.46875 7.1875,14.7678571 6.62946429,15.15625 C6.07142857,15.5446429 6.67410714,15.6919643 7.92410714,15.7142857 L12.0758929,15.7142857 Z" id="Shape"></path>
                        <path d="M10.515873,6.94515306 L10.515873,9.00825096 L14.6428571,5.92490434 L10.515873,2.8125 L10.515873,4.73999522 C5.52480159,4.73999522 5.35714286,10.0446429 5.35714286,10.0446429 C6.76934524,7.73616869 7.80753968,6.94515306 10.515873,6.94515306 Z" id="Path"></path>
                    </g>
                </g>
            </g>
        </g>
    </g>
</svg>