<?xml version="1.0" encoding="UTF-8"?>
<svg width="12px" height="12px" viewBox="0 0 12 12" version="1.1" xmlns="http://www.w3.org/2000/svg" xmlns:xlink="http://www.w3.org/1999/xlink">
    <title>CBDFADCC-0D07-4D5E-B62D-E346A917489C</title>
    <g id="UX-391-&amp;-392-VidyoConnector-Sample-app-on-Windows-&amp;-MacOS-v8" stroke="none" stroke-width="1" fill="none" fill-rule="evenodd">
        <g id="Assets" transform="translate(-228.000000, -172.000000)" fill="#FFFFFF">
            <g id="icon_muted_camera" transform="translate(228.000000, 172.000000)">
                <path d="M1.70275,1 L3.2029375,2.5 L8,7.297125 L11,10.29725 L10.29725,11 L7.9945,8.6974375 C7.98151397,9.14343229 7.61693173,9.49863719 7.17075,9.5 L7.17075,9.5 L1.8295,9.5 C1.37157506,9.49979299 1.00044396,9.12854998 1.000375,8.670625 L1.000375,8.670625 L1.000375,3.329375 C1.00170413,2.8832035 1.35689056,2.51861181 1.802875,2.505625 L1.802875,2.505625 L1,1.70275 L1.70275,1 Z M11,3.33375 L11,8.66625 L10.775,8.66625 L8.333125,6.225 L8.333125,5 L10.333125,3.33375 L11,3.33375 Z M7.17075,2.5 C7.62870947,2.5001725 7.99989652,2.87141551 8,3.329375 L8,3.329375 L8,5.891625 L4.60825,2.5 Z" id="Combined-Shape"></path>
            </g>
        </g>
    </g>
</svg>