<?xml version="1.0" encoding="UTF-8"?>
<svg width="20px" height="20px" viewBox="0 0 20 20" version="1.1" xmlns="http://www.w3.org/2000/svg" xmlns:xlink="http://www.w3.org/1999/xlink">
    <title>A99DACEC-148E-4335-9335-23A40330C82A</title>
    <g id="UX-391-&amp;-392.-iPhone" stroke="none" stroke-width="1" fill="none" fill-rule="evenodd">
        <g id="A09." transform="translate(-331.000000, -54.000000)" fill="#FFFFFF">
            <g id="UI-Elements-/-Misc/-Clear" transform="translate(331.000000, 54.000000)">
                <path d="M16.1571103,1.94984909 C16.6856716,1.53869206 17.450641,1.57517207 17.9373022,2.05985757 C18.4645185,2.58493353 18.4654633,3.43719285 17.9394123,3.96343204 L17.9394123,3.96343204 L11.9046667,9.99966667 L17.9394123,16.036568 C18.4654633,16.5628071 18.4645185,17.4150665 17.9373022,17.9401424 C17.450641,18.4248279 16.6856716,18.4613079 16.1571103,18.0501509 L16.030193,17.9380362 L9.99966667,11.9056667 L3.96980695,17.9380362 L3.84288968,18.0501509 C3.31432841,18.4613079 2.54935904,18.4248279 2.0626978,17.9401424 C1.53548145,17.4150665 1.53453672,16.5628071 2.06058767,16.036568 L2.06058767,16.036568 L8.09466667,9.99966667 L2.06058767,3.96343204 C1.53453672,3.43719285 1.53548145,2.58493353 2.0626978,2.05985757 C2.54935904,1.57517207 3.31432841,1.53869206 3.84288968,1.94984909 L3.96980695,2.06196379 L9.99966667,8.09366667 L16.030193,2.06196379 Z" id="Combined-Shape"></path>
            </g>
        </g>
    </g>
</svg>