<?xml version="1.0" encoding="UTF-8"?>
<svg width="24px" height="24px" viewBox="0 0 24 24" version="1.1" xmlns="http://www.w3.org/2000/svg" xmlns:xlink="http://www.w3.org/1999/xlink">
    <title>icon_voice_processing</title>
    <g id="UX-391-&amp;-392-VidyoConnector-Sample-app-on-Windows-&amp;-MacOS-v8" stroke="none" stroke-width="1" fill="none" fill-rule="evenodd" opacity="0.5">
        <g id="Assets" transform="translate(-663.000000, -330.000000)" fill="#FFFFFF">
            <g id="tab-6" transform="translate(630.000000, 320.000000)">
                <g id="icon_voice_processing" transform="translate(33.000000, 10.000000)">
                    <g transform="translate(0.000000, 1.000000)" id="Shape">
                        <path d="M10.5596641,12.3751959 C11.0333639,12.0792316 11.4623919,11.7182748 11.8341527,11.3044733 L13.1744173,12.0784478 L14.3947735,9.96465649 L13.0571959,9.19236132 C13.2272621,8.67315013 13.3272977,8.12242239 13.3460509,7.55154198 L14.8677455,7.28323155 L14.4437557,4.87957761 L12.922341,5.14788804 C12.7120814,4.62677354 12.43,4.14221374 12.0879084,3.70674809 L13.0824427,2.52165903 L11.2127226,0.952885496 L10.219028,2.13696692 C9.73368448,1.8768855 9.2080916,1.68246819 8.65417303,1.56580662 L8.65417303,0.0215521628 L6.21346056,0.0215521628 L6.21346056,1.56580662 C5.65948601,1.68246819 5.13389313,1.8768855 4.64849364,2.13696692 L3.65485496,0.952885496 L1.78513486,2.52171501 L2.77955725,3.70680407 C2.43752163,4.14226972 2.1554402,4.6268855 1.94518066,5.14794402 L0.423765903,4.87963359 L0,7.28328753 L1.52147074,7.55159796 C1.54022392,8.12253435 1.64031552,8.67315013 1.81038168,9.19252926 L0.472692112,9.96476845 L1.69310433,12.0785038 L3.03342494,11.3047532 C3.40507379,11.7183868 3.83410178,12.0793995 4.30785751,12.3753639 L3.77879389,13.8287634 L6.07239186,14.6635318 L6.60072774,13.2119796 C6.87301272,13.2504936 7.15106361,13.2709262 7.43381679,13.2709262 C7.71656997,13.2709262 7.99467684,13.2506056 8.26696183,13.2119796 L8.79524173,14.6635318 L11.0887277,13.8286514 L10.5596641,12.3751959 Z M7.43370483,10.4718321 C5.71501781,10.4718321 4.31675827,9.0736285 4.31675827,7.3548855 C4.31675827,5.63625445 5.71501781,4.23793893 7.43370483,4.23793893 C9.15239186,4.23793893 10.5506514,5.63625445 10.5506514,7.3548855 C10.5506514,9.0736285 9.15244784,10.4718321 7.43370483,10.4718321 Z"></path>
                        <path d="M21.0506412,14.2080254 L19.9985038,14.5483817 C19.7978728,14.1996845 19.549883,13.8839593 19.2643308,13.6090992 L19.852341,12.6706565 L18.3718473,11.7430738 L17.784173,12.6807328 C17.4144835,12.5442545 17.0227379,12.4583257 16.618341,12.4304478 L16.4657964,11.335542 L14.7353537,11.5767583 L14.8878982,12.6716641 C14.5067328,12.8089822 14.1531654,12.9989771 13.8348092,13.2312366 L13.0134758,12.4898422 L11.8428295,13.7867786 L12.6648346,14.5290127 C12.4654351,14.8714962 12.3134504,15.2428651 12.2158779,15.6332672 L11.1106158,15.5932977 L11.0474148,17.3391908 L12.1526209,17.3792723 C12.2223715,17.7822137 12.3477659,18.1624835 12.5197354,18.5140356 L11.6476845,19.1937964 L12.7216539,20.5717354 L13.5954402,19.890799 C13.8998575,20.1472977 14.2398219,20.3608041 14.6048092,20.5239847 L14.3731654,21.606855 L16.0817761,21.9718422 L16.3131399,20.8906514 C16.5099644,20.8912112 16.709028,20.8778321 16.9094351,20.8499542 C17.1099542,20.8220763 17.3052112,20.7799796 17.4942545,20.7259593 L18.012402,21.7028601 L19.5559847,20.8842697 L19.0372774,19.9062494 C19.3440458,19.6495267 19.6122443,19.3510433 19.8350992,19.0210992 L20.8616539,19.4373639 L21.5181272,17.8182087 L20.4935318,17.4027277 C20.5626107,17.0178677 20.5791247,16.6175013 20.5363003,16.2107532 L21.5886616,15.870173 L21.0506412,14.2080254 Z M16.6331756,18.8654758 C15.4144427,19.0351501 14.2848855,18.1820204 14.1152112,16.9634555 C13.945201,15.7448346 14.7985547,14.6151654 16.0172316,14.4455471 C17.2357964,14.2755929 18.3650738,15.1288906 18.5351959,16.3476234 C18.7047583,17.5661323 17.8516845,18.6954656 16.6331756,18.8654758 Z"></path>
                        <path d="M23.4076641,8.15326718 L23.4486412,6.77454453 L22.5761425,6.74862595 C22.5214504,6.44476845 22.4237099,6.14387786 22.2802901,5.85457506 L22.9654809,5.31325191 L22.1106158,4.23116539 L21.4255369,4.77226463 C21.1811858,4.56922646 20.910916,4.40369466 20.6240204,4.27874809 L20.8011399,3.42276336 L19.450743,3.14308906 L19.2732875,3.99851399 C18.9620967,3.99896183 18.6487786,4.04312977 18.3417303,4.1335369 L17.9279847,3.36510433 L16.7135064,4.01917048 L17.1272519,4.78771501 C16.8830127,4.99405598 16.6734249,5.23185751 16.5016234,5.49115522 L15.6901425,5.16815267 L15.180112,6.44969466 L15.9922646,6.77320102 C15.9388041,7.0815369 15.9283919,7.39782188 15.9634911,7.71360305 L15.1344885,7.98779135 L15.5673232,9.29743511 L16.3963257,9.02335878 C16.5586667,9.30247328 16.7560509,9.54934351 16.9799695,9.76234606 L16.5214402,10.505084 L17.6949415,11.2297964 L18.1544784,10.485715 C18.4503308,10.5918524 18.760626,10.6565089 19.0755115,10.6768295 L19.2015776,11.541883 L20.5665293,11.3425394 L20.440799,10.4785496 C20.586458,10.4249771 20.7302137,10.3604885 20.8709466,10.2846921 C21.0117913,10.2090076 21.144743,10.1241985 21.2696896,10.0322239 L21.9217405,10.6127888 L22.8390789,9.58287532 L22.1865802,9.00163868 C22.3430433,8.72733842 22.4594809,8.43266158 22.5338219,8.12729262 L23.4076641,8.15326718 Z M20.1210992,8.89203053 C19.2656743,9.35257506 18.1951756,9.03153181 17.734855,8.17644275 C17.2741425,7.32124173 17.5952417,6.25051908 18.4506667,5.79019847 C19.3056438,5.32954198 20.3760865,5.65080916 20.836799,6.50601018 C21.2970636,7.36126718 20.9761883,8.43143003 20.1210992,8.89203053 Z"></path>
                    </g>
                </g>
            </g>
        </g>
    </g>
</svg>