<?xml version="1.0" encoding="UTF-8"?>
<svg width="32px" height="32px" viewBox="0 0 32 32" version="1.1" xmlns="http://www.w3.org/2000/svg" xmlns:xlink="http://www.w3.org/1999/xlink">
    <title>24CD18C0-3CE3-4A71-8867-43D12388A0DA</title>
    <g id="UX-391-&amp;-392-VidyoConnector-Sample-app-on-Windows-&amp;-MacOS-v8" stroke="none" stroke-width="1" fill="none" fill-rule="evenodd" opacity="0.5">
        <g id="Assets" transform="translate(-266.000000, -652.000000)">
            <g id="toolbar" transform="translate(0.000000, 596.000000)">
                <g id="icon_microphone_disabled" transform="translate(266.000000, 56.000000)">
                    <rect id="Rectangle" x="0" y="0" width="32" height="32"></rect>
                    <path d="M7.40642987,6.00216387 L18.744328,17.3400621 L20.4761407,19.0718747 L21.757627,20.353361 L25.9989181,24.5946521 L24.5935701,26 L20.1266785,21.5329834 C19.203591,22.0534029 18.191654,22.3973555 17.1426264,22.5472486 L17.1426264,22.5472486 L17.1426264,25.9993751 L14.8567487,25.9993751 L14.8567487,22.5473736 C11.1089042,22.0366789 8.00086555,19.069 8.00086555,15.4748889 L8.00086555,15.4748889 L9.9439053,15.4748889 C9.9439053,18.6321722 12.8462163,20.8423081 16,20.8423081 C16.9686454,20.836079 17.9244059,20.6197504 18.8013219,20.2082517 L18.8013219,20.2082517 L17.0563857,18.4633155 C16.7145177,18.5714166 16.3585313,18.6283189 16,18.6321722 C14.1832102,18.7023396 12.6511895,17.2913076 12.5719959,15.4748889 L12.5719959,15.4748889 L12.5719959,13.9784258 L6.00108194,7.40751181 L7.40642987,6.00216387 Z M23.9991345,15.4748889 C23.9862209,16.6535757 23.6462983,17.8055308 23.0172407,18.8024038 L23.0172407,18.8024038 L21.6351402,17.4203034 C21.9085512,16.8079429 22.0518922,16.1455014 22.0560947,15.4748889 L22.0560947,15.4748889 Z M16,6.0027888 C17.8182987,5.92864556 19.3527208,7.3419453 19.4280041,9.16019716 L19.4280041,9.16019716 L19.4171302,15.2022934 L12.6659858,8.45114888 C13.0882697,6.96974501 14.4601158,5.96231882 16,6.0027888 Z" id="Combined-Shape" fill="#FFFFFF" fill-rule="nonzero"></path>
                </g>
            </g>
        </g>
    </g>
</svg>