<?xml version="1.0" encoding="UTF-8"?>
<svg width="32px" height="32px" viewBox="0 0 32 32" version="1.1" xmlns="http://www.w3.org/2000/svg" xmlns:xlink="http://www.w3.org/1999/xlink">
    <title>E759AEDC-64D8-459B-9EC6-610F339F8D77</title>
    <defs>
        <path d="M16.0018738,10.6153846 C22.533191,10.6153846 27.9899448,13.0449189 29.3085444,16.2859221 C30.1622207,18.3841921 29.9846793,20.0688469 29.9846793,20.0688469 C29.9846807,20.7955136 29.3977759,21.3846154 28.6737885,21.3846154 L22.5562852,21.3846154 C21.8323559,21.3846154 21.245457,20.795498 21.2454106,20.0688896 L21.245471,17.4373922 C21.2454481,16.7215315 21.8150219,16.1391959 22.524126,16.122058 C21.0800599,13.7736002 19.424479,14.0246139 16.0018982,14.0246232 C12.5793101,14.0246399 11.03603,13.7736132 9.59486053,16.1215926 C10.2317908,16.1842037 10.7583119,16.7490111 10.7583365,17.4373839 L10.7583937,20.0688221 C10.7582933,20.7954751 10.1713811,21.3846154 9.44748084,21.3846154 L3.33004817,21.3846154 C2.60600127,21.3846154 2.01912434,20.7955293 2.01915168,20.0688028 C2.01915168,20.0688028 1.82162806,18.4329937 2.6952696,16.2858633 C4.01393926,13.0448965 9.47071026,10.6153846 16.0018738,10.6153846 Z" id="path-1"></path>
    </defs>
    <g id="UX-391-&amp;-392-VidyoConnector-Sample-app-on-Windows-&amp;-MacOS-v8" stroke="none" stroke-width="1" fill="none" fill-rule="evenodd">
        <g id="Assets" transform="translate(-26.000000, -612.000000)">
            <g id="toolbar" transform="translate(0.000000, 596.000000)">
                <g id="icon_end_call" transform="translate(26.000000, 16.000000)">
                    <rect id="Rectangle" x="0" y="0" width="32" height="32"></rect>
                    <mask id="mask-2" fill="white">
                        <use xlink:href="#path-1"></use>
                    </mask>
                    <use id="ic_call" fill="#E84B40" xlink:href="#path-1"></use>
                </g>
            </g>
        </g>
    </g>
</svg>