<?xml version="1.0" encoding="UTF-8"?>
<svg width="32px" height="32px" viewBox="0 0 32 32" version="1.1" xmlns="http://www.w3.org/2000/svg" xmlns:xlink="http://www.w3.org/1999/xlink">
    <title>CD4E12D4-4F58-4417-B14F-B183BD94B241</title>
    <g id="UX-391-&amp;-392-VidyoConnector-Sample-app-on-Windows-&amp;-MacOS-v8" stroke="none" stroke-width="1" fill="none" fill-rule="evenodd">
        <g id="Assets" transform="translate(-602.000000, -612.000000)">
            <g id="toolbar" transform="translate(0.000000, 596.000000)">
                <g id="icon_selfview_background_active" transform="translate(602.000000, 16.000000)">
                    <rect id="Rectangle" x="9.09494702e-13" y="0" width="32.0002667" height="32"></rect>
                    <path d="M20.2796,24 L18.2796,26 L16.2902667,27.9893333 C16.1936,27.9913333 16.0976,28 16.0002667,28 C15.7849333,28 15.5729333,27.9873333 15.3609333,27.976 L15.3609333,27.976 L19.3369333,24 L20.2796,24 Z M15.5559333,24 L13.5559333,26 L12.1852667,27.3706667 C11.9526,27.2926667 11.7219333,27.2093333 11.4959333,27.1173333 L11.4959333,27.1173333 L14.6132667,24 L15.5559333,24 Z M26.7298667,21.3306667 C26.0925333,22.6046667 25.2485333,23.7566667 24.2218667,24.724 C23.7272,25.1913333 23.1972,25.622 22.6278667,26 C22.2052,26.2806667 21.7605333,26.5313333 21.3025333,26.758 L21.3025333,26.758 L22.0605333,26 L24.2218667,23.838 Z M10.3326667,23.5573333 C10.3486667,23.572 10.3586667,23.5913333 10.3753333,23.6053333 L10.3753333,23.6053333 L10.46,23.6933333 L10.6446667,23.8006667 C10.726,23.848 10.8173333,23.8873333 10.9133333,23.9186667 L10.9133333,23.9186667 L9.06066667,25.772 C8.878,25.6406667 8.69333333,25.512 8.51866667,25.3713333 L8.51866667,25.3713333 Z M9.77766667,19.389 L9.77766667,20.3316667 L6.63966667,23.4696667 C6.49966667,23.295 6.35433333,23.125 6.22433333,22.9423333 L6.22433333,22.9423333 L7.77766667,21.389 L9.77766667,19.389 Z M17.4316667,17.3333333 C17.4516667,17.3333333 17.4756667,17.3353333 17.497,17.3353333 C18.1623333,17.3546667 19.5243333,17.668 20.3176667,18.296 C20.5036667,18.4433333 20.659,18.608 20.765,18.7906667 C20.807,18.8626667 20.843,18.9373333 20.869,19.0146667 L20.869,19.0146667 L20.889,21.1593333 L20.889,21.1593333 L20.887,22.27 C20.887,22.3246667 20.8776667,22.3786667 20.8616667,22.4286667 C20.8496667,22.464 20.831,22.4946667 20.8123333,22.5246667 C20.7836667,22.5693333 20.7503333,22.6086667 20.7096667,22.6326667 C20.707,22.634 20.7036667,22.634 20.701,22.636 C20.677,22.6493333 20.6523333,22.6593333 20.6263333,22.6646667 L20.6263333,22.6646667 L20.601,22.6666667 L11.3986667,22.6665 L11.3986667,22.6665 L11.3856667,22.6653333 C11.355,22.662 11.3236667,22.6533333 11.2956667,22.6366667 C11.287,22.632 11.281,22.6226667 11.273,22.6166667 C11.215,22.5753333 11.1643333,22.512 11.1376667,22.4306667 C11.121,22.384 11.113,22.334 11.111,22.2846667 L11.111,22.2846667 L11.111,18.9626667 C11.2876667,18.3646667 11.7923333,17.9793333 12.375,17.7346667 C13.1383333,17.414 14.0356667,17.3333333 14.513,17.3333333 L14.513,17.3333333 Z M27.9668,15.3697333 C27.9781333,15.5797333 28.0001333,15.7870667 28.0001333,15.9997333 C28.0001333,16.0997333 27.9868,16.1957333 27.9841333,16.2950667 L27.9841333,16.2950667 L22.2201333,22.0590667 L22.2208,21.7150667 L22.2221333,21.1630667 L22.2214667,21.1150667 L24.2221333,19.1144 Z M11.5867333,12.8566 C11.6127333,13.1272667 11.6587333,13.3939333 11.7327333,13.6532667 L11.7327333,13.6532667 L7.7774,17.6086 L4.8894,20.4959333 C4.79806667,20.2712667 4.70673333,20.0459333 4.62873333,19.8146 L4.62873333,19.8146 Z M27.1098667,11.5034667 C27.2012,11.7281333 27.2932,11.9534667 27.3712,12.1848 L27.3712,12.1848 L24.2218667,15.3334667 L21.7145333,17.8414667 C21.5838667,17.6708 21.4332,17.5081333 21.2572,17.3554667 L21.2572,17.3554667 L24.2218667,14.3908 Z M16.0001333,4 C16.2148,4 16.4268,4.01266667 16.6388,4.024 L16.6388,4.024 L7.77746667,12.8846667 L4.03346667,16.6293333 C4.02213333,16.4193333 4.00013333,16.2126667 4.00013333,16 C4.00013333,15.9 4.0128,15.804 4.01546667,15.704 L4.01546667,15.704 L13.7194667,6 L15.7088,4.01133333 C15.8061333,4.00866667 15.9021333,4 16.0001333,4 Z M25.3599333,8.52966667 C25.4999333,8.705 25.6452667,8.875 25.7752667,9.057 L25.7752667,9.057 L24.2219333,10.6103333 L18.6719333,16.161 C18.6099333,16.147 18.5499333,16.1356667 18.4899333,16.1236667 C19.3586,15.5336667 20.0039333,14.643 20.2852667,13.6043333 L20.2852667,13.6043333 L24.2219333,9.66766667 Z M15.9994667,9.3332 C16.0161333,9.3332 16.0314667,9.33786667 16.0481333,9.33786667 C17.0721333,9.35386667 17.9708,9.86386667 18.5261333,10.6398667 C18.6608,10.8272 18.7788,11.0258667 18.8688,11.2405333 C19.0241333,11.6112 19.1108,12.0172 19.1108,12.4445333 C19.1108,14.1632 17.7188,15.5558667 15.9994667,15.5558667 C15.5728,15.5558667 15.1661333,15.4692 14.7961333,15.3132 C14.5808,15.2232 14.3828,15.1052 14.1954667,14.9712 C13.4194667,14.4158667 12.9094667,13.5165333 12.8934667,12.4925333 C12.8934667,12.4758667 12.8888,12.4612 12.8888,12.4445333 C12.8888,12.0558667 12.9681333,11.6878667 13.0988,11.3445333 C13.4134667,10.5138667 14.0694667,9.85786667 14.9001333,9.5432 C15.2434667,9.4132 15.6108,9.3332 15.9994667,9.3332 Z M10.6974667,5.242 L5.27013333,10.6693333 C5.90746667,9.39533333 6.75146667,8.24333333 7.77746667,7.276 C8.2728,6.80866667 8.8028,6.378 9.37213333,6 C9.7948,5.71933333 10.2394667,5.46866667 10.6974667,5.242 L10.6974667,5.242 Z M22.9386667,6.22753333 C23.122,6.35886667 23.306,6.48753333 23.4806667,6.6282 L23.4806667,6.6282 L19.8586667,10.2508667 C19.784,10.1222 19.7033333,9.99353333 19.6106667,9.8642 C19.568,9.8042 19.5186667,9.75086667 19.4726667,9.69353333 L19.4726667,9.69353333 Z M19.8143333,4.62873333 C20.047,4.7074 20.2776667,4.79006667 20.5036667,4.88273333 L20.5036667,4.88273333 L19.3863333,6.00006667 L17.2083333,8.1774 C16.9496667,8.1034 16.6823333,8.0574 16.4116667,8.0314 L16.4116667,8.0314 L18.4436667,6.00006667 Z" id="Combined-Shape" fill="#80B02F"></path>
                </g>
            </g>
        </g>
    </g>
</svg>