<?xml version="1.0" encoding="UTF-8"?>
<svg width="20px" height="20px" viewBox="0 0 20 20" version="1.1" xmlns="http://www.w3.org/2000/svg" xmlns:xlink="http://www.w3.org/1999/xlink">
    <title>6DBE4895-7185-4696-B36F-9D6EFE7278A6</title>
    <g id="UX-391-&amp;-392.-iPhone" stroke="none" stroke-width="1" fill="none" fill-rule="evenodd">
        <g id="B08." transform="translate(-331.000000, -130.000000)" fill="#FFFFFF">
            <g id="UI-Elements-/-Table-/-Row-/-Active-+-Status" transform="translate(0.000000, 112.000000)">
                <g id="Icons-/-Pin" transform="translate(331.000000, 18.000000)">
                    <path d="M12.8174474,3.13404627 L16.8583762,7.18936994 L12.5080632,11.5551799 L8.46713445,7.49985624 L12.8174474,3.13404627 Z M11.7223637,17.2977459 L2.72407322,8.26740101 C4.33828597,6.64743799 6.96276009,6.65516181 8.58646821,8.28465403 L11.705172,11.4144675 C13.3285583,13.0436367 13.3365765,15.6777829 11.7223637,17.2977459 Z M7.33995232,13.5736198 L1.42053244,19.5141263 L0,20 L0.48286944,18.5756914 L6.40356892,12.6339007 L7.33995232,13.5736198 Z M20,6.90063797 C19.6324355,7.26951183 19.1328523,7.47571899 18.6114876,7.47451191 C18.0901211,7.47265023 17.589644,7.26317792 17.2202392,6.89245714 L13.1320085,2.78966312 C12.7622819,2.41861941 12.5535531,1.91635949 12.5520167,1.39345865 C12.5504953,0.869913836 12.7562923,0.368873863 13.1238568,0 L20,6.90063797 Z" id="ic_pin"></path>
                </g>
            </g>
        </g>
    </g>
</svg>