<?xml version="1.0" encoding="UTF-8"?>
<svg width="32px" height="32px" viewBox="0 0 32 32" version="1.1" xmlns="http://www.w3.org/2000/svg" xmlns:xlink="http://www.w3.org/1999/xlink">
    <title>5EF10D43-1141-478E-9F4F-E07B01A06B45</title>
    <g id="UX-391-&amp;-392-VidyoConnector-Sample-app-on-Windows-&amp;-MacOS-v8" stroke="none" stroke-width="1" fill="none" fill-rule="evenodd">
        <g id="Assets" transform="translate(-26.000000, -652.000000)">
            <g id="toolbar" transform="translate(0.000000, 596.000000)">
                <g id="icon_speaker" transform="translate(26.000000, 56.000000)">
                    <rect id="Rectangle" x="0" y="0" width="32" height="32"></rect>
                    <path d="M18,5.99964581 C22.6771171,7.05216695 26,11.2059177 26,16 C26,20.7940823 22.6771171,24.9478331 18,26.0003542 L18,26.0003542 L18,23.6457339 C21.3887365,22.6452098 23.7145716,19.5334156 23.7145716,16.0000625 C23.7145716,12.4667095 21.3887365,9.35491524 18,8.35439109 L18,8.35439109 Z M15.9997916,6.99912492 L15.9997916,25.0010001 L10.4442129,19.3754141 L6,19.3754141 L6,12.6247109 L10.4442129,12.6247109 L15.9997916,6.99912492 Z M18,10.9995416 C19.8567612,11.9723342 21.0145796,13.9008256 21.0003125,15.9969372 C21.0131031,18.094245 19.8560467,20.0238776 18,21.0005834 L18,21.0005834 Z" id="Combined-Shape" fill="#FFFFFF" fill-rule="nonzero"></path>
                </g>
            </g>
        </g>
    </g>
</svg>